<?xml version="1.0" encoding="iso-8859-1"?>
<!-- Uploaded to: SVG Repo, www.svgrepo.com, Generator: SVG Repo Mixer Tools -->
<svg height="800px" width="800px" version="1.1" id="Layer_1" xmlns="http://www.w3.org/2000/svg" xmlns:xlink="http://www.w3.org/1999/xlink" 
	 viewBox="0 0 512 512" xml:space="preserve">
<g>
	<path style="fill:#FF931E;" d="M476.719,230.918H316.553l113.255-113.255c9.795-9.795,9.795-25.675,0-35.471
		c-9.795-9.794-25.675-9.794-35.471,0L281.082,195.447V35.281c0-13.853-11.229-25.082-25.082-25.082
		c-13.853,0-25.082,11.229-25.082,25.082v160.166L117.663,82.192c-9.795-9.794-25.675-9.794-35.471,0
		c-9.795,9.795-9.795,25.675,0,35.471l113.255,113.255H35.281c-13.853,0-25.082,11.229-25.082,25.082
		c0,13.853,11.229,25.082,25.082,25.082h160.166L82.192,394.337c-9.795,9.795-9.795,25.675,0,35.471
		c4.898,4.898,11.317,7.346,17.735,7.346s12.838-2.449,17.735-7.346l113.255-113.255v160.166c0,13.853,11.229,25.082,25.082,25.082
		c13.853,0,25.082-11.229,25.082-25.082V316.553l113.255,113.255c4.898,4.898,11.317,7.346,17.735,7.346
		c6.419,0,12.838-2.449,17.735-7.346c9.795-9.795,9.795-25.675,0-35.471L316.553,281.082h160.166
		c13.853,0,25.082-11.229,25.082-25.082C501.801,242.147,490.571,230.918,476.719,230.918z"/>
	<path style="fill:#FF931E;" d="M258.006,443.611c-102.896,0-186.608-83.712-186.608-186.608S155.111,70.395,258.006,70.395
		s186.608,83.712,186.608,186.608S360.902,443.611,258.006,443.611z M258.006,120.559c-75.235,0-136.445,61.208-136.445,136.445
		s61.208,136.445,136.445,136.445s136.445-61.208,136.445-136.445S333.243,120.559,258.006,120.559z"/>
	<circle style="fill:#FF931E;" cx="256" cy="256" r="65.213"/>
</g>
<path d="M476.719,220.719h-25.272c-5.316-28.403-16.742-54.68-32.874-77.399l18.445-18.445c6.664-6.664,10.334-15.523,10.334-24.947
	s-3.671-18.284-10.334-24.947c-13.757-13.756-36.139-13.755-49.893,0l-18.99,18.99c-22.701-15.384-48.774-26.145-76.854-30.946
	V35.281C291.281,15.827,275.454,0,256,0s-35.281,15.827-35.281,35.281v28.474c-27.53,5.302-53.033,16.353-75.21,31.859
	l-20.634-20.633c-13.757-13.756-36.139-13.755-49.893,0c-6.664,6.664-10.334,15.523-10.334,24.947s3.671,18.284,10.334,24.947
	l20.815,20.816c-15.261,22.17-26.098,47.606-31.23,75.029H35.281C15.827,220.719,0,236.546,0,256s15.827,35.281,35.281,35.281
	h28.912c4.885,27.699,15.579,53.419,30.78,75.851L74.98,387.125c-6.664,6.664-10.334,15.523-10.334,24.947
	c0,9.424,3.671,18.284,10.334,24.947c6.664,6.663,15.524,10.333,24.947,10.333s18.283-3.67,24.946-10.333l19.449-19.449
	c22.45,15.941,48.377,27.286,76.395,32.681v26.468C220.719,496.173,236.546,512,256,512s35.281-15.827,35.281-35.281v-25.736
	c28.573-4.886,55.059-15.951,78.039-31.768l17.805,17.805c6.664,6.663,15.523,10.333,24.947,10.333
	c9.424,0,18.284-3.67,24.947-10.333c6.664-6.664,10.334-15.523,10.334-24.947c0-9.424-3.671-18.283-10.334-24.946l-17.623-17.624
	c16.07-22.984,27.365-49.539,32.424-78.221h24.899c19.453,0,35.28-15.827,35.28-35.281S496.173,220.719,476.719,220.719z
	 M398.1,364.079c-0.017,0.021-0.034,0.045-0.051,0.066c-9.763,12.73-21.212,24.099-34.021,33.76
	c-0.028,0.021-0.056,0.042-0.083,0.063c-23.975,18.063-52.684,30.161-83.904,34.068c-0.001,0-0.002,0-0.004,0
	c-7.219,0.904-14.571,1.373-22.03,1.373c-40.749,0-78.311-13.893-108.209-37.184c-0.024-0.02-0.051-0.039-0.076-0.058
	c-41.43-32.309-68.124-82.677-68.124-139.165c0-39.725,13.203-76.421,35.444-105.941c0.017-0.021,0.033-0.044,0.05-0.065
	c9.663-12.812,21.032-24.265,33.762-34.029c0.025-0.02,0.053-0.039,0.079-0.06c29.712-22.764,66.837-36.313,107.073-36.313
	c7.46,0,14.811,0.47,22.03,1.373c0.001,0,0.002,0,0.004,0c47.45,5.939,89.098,30.796,117.141,66.761
	c0.016,0.02,0.031,0.042,0.048,0.062c23.292,29.9,37.187,67.463,37.187,108.213C434.416,297.24,420.865,334.367,398.1,364.079z
	 M401.549,89.405c5.803-5.802,15.245-5.802,21.047,0c2.811,2.811,4.359,6.548,4.359,10.524c0,3.975-1.548,7.713-4.359,10.524
	l-16.77,16.771c-6.559-7.461-13.672-14.422-21.275-20.82L401.549,89.405z M241.117,35.281c0-8.206,6.676-14.883,14.883-14.883
	c8.206,0,14.883,6.676,14.883,14.883v25.348c-4.258-0.276-8.549-0.432-12.876-0.432c-5.69,0-11.32,0.257-16.889,0.732V35.281z
	 M89.404,110.451c-2.811-2.811-4.359-6.548-4.359-10.524c0-3.975,1.548-7.713,4.359-10.523c5.802-5.801,15.244-5.802,21.047,0
	l18.837,18.836c-7.508,6.505-14.511,13.575-20.963,21.131L89.404,110.451z M35.281,270.883c-8.206,0-14.883-6.676-14.883-14.883
	s6.676-14.883,14.883-14.883h26.562c-0.42,5.241-0.644,10.538-0.644,15.886c0,4.666,0.175,9.292,0.496,13.879H35.281z
	 M110.451,422.595c-2.811,2.811-6.548,4.359-10.523,4.359c-3.976,0-7.713-1.548-10.524-4.359c-2.811-2.811-4.359-6.548-4.359-10.524
	c0-3.975,1.548-7.713,4.359-10.524l18.001-18.001c6.398,7.602,13.359,14.715,20.82,21.275L110.451,422.595z M270.883,476.719
	c0,8.206-6.676,14.883-14.883,14.883c-8.206,0-14.883-6.676-14.883-14.883v-23.642c5.569,0.475,11.199,0.732,16.889,0.732
	c4.326,0,8.617-0.156,12.876-0.432L270.883,476.719L270.883,476.719z M422.596,401.549c2.811,2.811,4.359,6.548,4.359,10.522
	c0,3.976-1.548,7.713-4.359,10.524c-2.811,2.811-6.548,4.359-10.524,4.359c-3.975,0-7.713-1.548-10.523-4.359l-15.911-15.911
	c7.556-6.452,14.626-13.455,21.131-20.963L422.596,401.549z M476.719,270.883h-22.402c0.321-4.587,0.496-9.212,0.496-13.879
	c0-5.347-0.222-10.645-0.644-15.886h22.548c8.206,0,14.883,6.676,14.883,14.883S484.925,270.883,476.719,270.883z"/>
<path d="M404.65,257.004c0-9.618-0.941-19.019-2.717-28.125c-0.002-0.008-0.003-0.016-0.005-0.024
	c-4.025-20.615-12.376-39.698-24.075-56.26c-0.034-0.051-0.07-0.1-0.104-0.151c-10.485-14.803-23.644-27.58-38.764-37.634
	c-0.069-0.047-0.14-0.093-0.21-0.139c-23.178-15.354-50.944-24.311-80.767-24.311c-9.967,0-19.703,1.004-29.117,2.908
	c-0.014,0.003-0.029,0.005-0.043,0.008c-19.743,3.999-38.053,11.981-54.067,23.06c-0.048,0.032-0.094,0.066-0.141,0.098
	c-14.909,10.341-27.821,23.366-38.02,38.382c-0.034,0.049-0.069,0.097-0.101,0.146c-10.84,16.002-18.596,34.25-22.43,53.884
	c-0.003,0.014-0.005,0.029-0.008,0.044c-1.775,9.103-2.715,18.499-2.715,28.114c0,8.917,0.803,17.651,2.335,26.133l0,0
	c3.592,19.889,11.215,38.391,21.98,54.639c0.043,0.066,0.087,0.133,0.131,0.199c10.055,15.124,22.836,28.288,37.643,38.774
	c0.048,0.033,0.095,0.067,0.143,0.099c16.292,11.51,35.023,19.784,55.252,23.882c0.013,0.003,0.028,0.005,0.041,0.008
	c9.414,1.904,19.151,2.908,29.118,2.908c30.369,0,58.611-9.28,82.04-25.152c0.052-0.034,0.101-0.071,0.152-0.106
	c15.012-10.198,28.037-23.108,38.377-38.017c0.032-0.047,0.066-0.093,0.098-0.141C395.044,316.57,404.65,287.89,404.65,257.004z
	 M256,311.013c-30.334,0-55.013-24.679-55.013-55.013s24.679-55.013,55.013-55.013s55.013,24.679,55.013,55.013
	S286.334,311.013,256,311.013z M220.719,377.627c-8.923-2.764-17.426-6.492-25.387-11.064l25.387-25.387V377.627z M136.493,291.281
	h34.332l-24.511,24.51C142.227,308.058,138.914,299.855,136.493,291.281z M132.528,270.883c-0.501-4.559-0.767-9.188-0.767-13.879
	c0-5.38,0.341-10.682,0.996-15.886h49.312c-0.968,4.813-1.482,9.788-1.482,14.883c0,5.095,0.514,10.069,1.482,14.883H132.528z
	 M147.007,196.903l23.817,23.816h-33.74C139.588,212.389,142.923,204.414,147.007,196.903z M291.281,135.217
	c8.937,2.445,17.479,5.847,25.513,10.093l-25.513,25.514L291.281,135.217L291.281,135.217z M329.93,241.117h53.326
	c0.656,5.205,0.996,10.506,0.996,15.886c0,4.691-0.265,9.32-0.767,13.879H329.93c0.968-4.813,1.482-9.788,1.482-14.883
	C331.412,250.906,330.898,245.931,329.93,241.117z M378.929,220.719h-37.753l26.39-26.39
	C372.309,202.587,376.136,211.43,378.929,220.719z M379.521,291.281c-2.696,9.541-6.492,18.625-11.234,27.111l-27.11-27.111H379.521
	z M355.795,177.252l-37.02,37.02c-5.555-8.329-12.718-15.493-21.047-21.047l36.664-36.664
	C342.312,162.598,349.499,169.545,355.795,177.252z M270.883,131.41v50.66c-4.813-0.968-9.788-1.482-14.883-1.482
	c-5.094,0-10.069,0.514-14.883,1.482v-50.179c5.526-0.743,11.163-1.133,16.889-1.133
	C262.353,130.758,266.648,130.979,270.883,131.41z M220.719,170.824l-24.101-24.101c7.589-4.241,15.655-7.727,24.101-10.344V170.824
	z M179.366,158.319l34.905,34.905c-8.329,5.554-15.493,12.718-21.047,21.047l-34.789-34.789
	C164.559,171.634,171.589,164.529,179.366,158.319z M157.564,333.389l35.66-35.66c5.554,8.329,12.718,15.493,21.047,21.047
	l-36.016,36.016C170.549,348.496,163.601,341.308,157.564,333.389z M241.117,382.115V329.93c4.813,0.968,9.788,1.482,14.883,1.482
	c5.095,0,10.069-0.514,14.883-1.482v52.667c-4.235,0.43-8.53,0.652-12.876,0.652C252.28,383.248,246.644,382.858,241.117,382.115z
	 M291.281,341.176l26.826,26.827c-8.412,4.573-17.403,8.209-26.826,10.787V341.176z M335.527,356.574l-37.799-37.799
	c8.329-5.555,15.493-12.718,21.047-21.047l37.916,37.916C350.48,343.42,343.376,350.451,335.527,356.574z"/>
<path d="M231.084,256c0-3.468,0.697-6.82,2.068-9.964c2.255-5.162-0.102-11.174-5.264-13.429
	c-5.162-2.254-11.174,0.103-13.429,5.264c-2.505,5.734-3.775,11.833-3.775,18.128c0,9.894,3.134,19.298,9.063,27.193
	c2.004,2.668,5.064,4.075,8.163,4.075c2.132,0,4.282-0.666,6.117-2.044c4.504-3.382,5.413-9.776,2.031-14.28
	C232.805,266.608,231.084,261.441,231.084,256z"/>
<path d="M256,210.686c-3.492,0-6.975,0.401-10.35,1.19c-5.484,1.283-8.891,6.769-7.607,12.254c1.1,4.703,5.291,7.878,9.922,7.878
	c0.769,0,1.551-0.088,2.333-0.271c1.853-0.433,3.773-0.654,5.702-0.654c5.633,0,10.199-4.566,10.199-10.199
	S261.633,210.686,256,210.686z"/>
</svg>